<?xml version="1.0" encoding="UTF-8"?>
<svg id="Layer_2" xmlns="http://www.w3.org/2000/svg" version="1.1" viewBox="0 0 17.9 23.5">
  <!-- Generator: Adobe Illustrator 29.2.1, SVG Export Plug-In . SVG Version: 2.1.0 Build 116)  -->
  <defs>
    <style>
      .st0 {
        fill: #fff;
      }
    </style>
  </defs>
  <g id="SPARE_COMMAS">
    <g id="Layer_1-2">
      <path class="st0" d="M17.7,5.8c-1.2,1-2.3,2.1-3.6,3,0,0-.3.2-.3.2,0,.1.2.1.2.2,1.6,1.4,2.2,3.5,2.4,5.5.2,2-.6,4.3-2,5.6-1.7,1.6-3.8,2.3-6,2.7-1,.2-2.2.4-3.2.3-.2,0-.5-.1-.5-.4s.4-.3.6-.3c.8-.2,1.6-.4,2.3-.9,1.6-1,3.1-2.8,3.4-4.7.3-1.7-.5-3.3-1.4-4.6,0,0-.2-.3-.3-.3,0,0,0,0-.1,0-.3.1-.5.4-.8.5-.9.6-1.8,1.2-2.8,1.8-.2.1-.4.2-.6.3s-.5.5-.8.5-.1,0-.2,0c0-.1-.1-.2,0-.3,0-.2.1-.5.2-.7.5-1.4,1.1-2.6,1.5-4,0-.1.2-.4.1-.5,0,0-.3-.2-.3-.2-1.7-1.2-3.6-2.1-5.4-3.2-.2-.2-.2-.4,0-.6.1,0,.5-.1.6-.2.5,0,1,0,1.5,0,1.5,0,2.4,0,3.9,0,0,0,.2,0,.4,0,.3,0,.5-.2.6-.4.1-.3.2-.7.3-1,.3-1,.6-2,1-2.9.1-.3.4-.9.6-1.2.1-.2.4-.2.5,0,.1.2.2.5.2.7.5,1.5,1.1,3,1.6,4.6,0,.1.2,0,.3,0,.8,0,1.7-.1,2.5-.2,1,0,2.1-.2,3.1-.1.5,0,.7.3.3.7h0Z"/>
    </g>
  </g>
</svg>