<?xml version="1.0" encoding="UTF-8"?>
<svg id="Layer_2" xmlns="http://www.w3.org/2000/svg" version="1.1" viewBox="0 0 17.5 22.4">
  <!-- Generator: Adobe Illustrator 29.2.1, SVG Export Plug-In . SVG Version: 2.1.0 Build 116)  -->
  <defs>
    <style>
      .st0 {
        fill: #fff;
      }
    </style>
  </defs>
  <g id="SPARE_COMMAS">
    <path class="st0" d="M0,20.8c0,0,.1-.1.2-.1.7-.4,2-.5,2.8-.7,3.5-1,7.6-4.6,9.1-7.9.6-1.4,1.2-3.5.9-5-.4-2.3-4-2.9-5.9-2.3-.7.2-1.8.9-2,1.6-.4,1,.3,3.1,1.5,3,.2,0,.8-.4.8-.6-.2-.4-.8-1.1-.6-1.6,0-.1.3-.6.4-.7.2-.2.6-.3.8-.4,2.2-.5,3,1.5,2.5,3.4-1.1,3.9-5.8,4.3-7.9,1C-.2,6.2,2.1,1.4,6.8.3c5.1-1.3,10.5,2,10.8,7.4.3,5.5-3.1,10-7.4,12.8-2.6,1.7-4.6,2.2-7.7,1.7C1.4,22.1.5,21.6,0,20.8h0Z"/>
  </g>
</svg>