<?xml version="1.0" encoding="UTF-8"?>
<svg id="Layer_2" xmlns="http://www.w3.org/2000/svg" version="1.1" viewBox="0 0 16.5 22.6">
  <!-- Generator: Adobe Illustrator 29.2.1, SVG Export Plug-In . SVG Version: 2.1.0 Build 116)  -->
  <defs>
    <style>
      .st0 {
        fill: #fff;
      }
    </style>
  </defs>
  <g id="SPARE_COMMAS">
    <g id="Layer_1-2">
      <path class="st0" d="M0,21.6s0-.1,0-.1c0,0,0-.1,0-.1.1-.2.7-.5.9-.6,1.3-.8,2.8-2,3.2-3.5.2-1,0-2.2-.9-2.9-.1-.1-.3-.2-.4-.4-.1-.2,0-.5.2-.7.3-.2.5,0,.8,0,.7,0,1-.8.9-1.5-.3-1.8-2.2-3.3-3.6-4.2-.2-.2-.5-.3-.7-.5-.4-.3-.3-.9.2-1,.5,0,.9-.2,1.3-.3,2-.7,3.8-2.6,3.9-4.8,0-.3,0-.6.3-.8.5-.2.7.2,1,.4,1.7,1.4,4.2,1.9,6.3,1.3.2,0,.5-.2.7-.2.3,0,.4.3.4.5.5,1.3.1,2.7-.5,3.9-.5.9-1.3,1.7-2,2.4.3,0,.6,0,.9-.1.9-.2,1.5-.9,2.1-1.5.1-.2.5-.6.7-.7.2,0,.4,0,.5.1.2.2.2.3.2.6,0,.3,0,.7,0,1-.6,4.8-2.6,9.2-6.6,12.1-1.8,1.4-4.4,2.5-6.7,2.6h-.5s-.5,0-.5,0c-.5,0-1-.2-1.5-.4-.2,0-.4-.1-.5-.3v-.2c0,0,0-.1,0-.1h0Z"/>
    </g>
  </g>
</svg>