<?xml version="1.0" encoding="UTF-8"?>
<svg id="Layer_2" xmlns="http://www.w3.org/2000/svg" version="1.1" viewBox="0 0 14.9 21.9">
  <!-- Generator: Adobe Illustrator 29.2.1, SVG Export Plug-In . SVG Version: 2.1.0 Build 116)  -->
  <defs>
    <style>
      .st0 {
        fill: #fff;
      }
    </style>
  </defs>
  <g id="SPARE_COMMAS">
    <g id="Layer_1-2">
      <path class="st0" d="M4.6.4l10.1,14.4c.3.5.2,1.1-.2,1.4l-7.8,5.5c-.5.3-1.1.2-1.4-.2l-1.9-2.6c-.3-.5-.2-1.1.2-1.4l6.6-4.6c.5-.3.6-1,.2-1.4l-1.7-2.4c-.3-.5-1-.6-1.4-.2l-1.5,1c-.5.3-1.1.2-1.4-.2L.2,3.5c-.3-.5-.2-1.1.2-1.4L3.2.2c.5-.3,1.1-.2,1.4.2h0Z"/>
    </g>
  </g>
</svg>