<?xml version="1.0" encoding="UTF-8"?>
<svg id="Layer_2" xmlns="http://www.w3.org/2000/svg" version="1.1" viewBox="0 0 16.1 21.3">
  <!-- Generator: Adobe Illustrator 29.2.1, SVG Export Plug-In . SVG Version: 2.1.0 Build 116)  -->
  <defs>
    <style>
      .st0 {
        fill: #fff;
      }
    </style>
  </defs>
  <g id="SPARE_COMMAS">
    <g id="Layer_1-2">
      <path class="st0" d="M14.4,0c0,0,.1,0,.2,0,.8.1,1.5.8,1.5,1.5,0,.4,0,.9,0,1.3,0,1.2,0,2.5-.2,3.8,0,.5-.1,1.2-.4,1.7-.3.6-.6,1.1-1,1.6-.8,1.2-1.7,2.3-2.6,3.4-1.7,2-3.5,4.1-5.7,5.4-1.8,1.1-3.8,2.2-6,2.4,0,0,0,0-.1,0H0v-.4c0,0,0,0,0,0,0,0,.2-.2.2-.3.3-.2.7-.5,1-.7,1-.7,1.8-1.5,2.6-2.3,1.3-1.3,2.5-2.5,3.5-4,.8-1,1.8-2.4,2-3.7.1-.5,0-.9-.4-1.2h-.4c0,0-2.3,0-2.3,0-.3,0-.5-.3-.5-.6V1.7c0-.9.8-1.6,1.7-1.7h6.9Z"/>
    </g>
  </g>
</svg>