<?xml version="1.0" encoding="UTF-8"?>
<svg id="Layer_2" xmlns="http://www.w3.org/2000/svg" version="1.1" viewBox="0 0 16.5 23.2">
  <!-- Generator: Adobe Illustrator 29.2.1, SVG Export Plug-In . SVG Version: 2.1.0 Build 116)  -->
  <defs>
    <style>
      .st0 {
        fill: #fff;
      }
    </style>
  </defs>
  <g id="SPARE_COMMAS">
    <path class="st0" d="M9.9,9.4s0,0,0,0c-.1,0-.6.3-.7.4-.5.2-1.7.7-2.1.2-.1-.2-.2-.4-.3-.6-.4-.6-.9-1.2-1.4-1.8-.5-.8-1.5-2.1-1.7-3,0-.3,0-.2.1-.5.1-.2.2-.2.3-.4,0,0,.2-.2.3-.3.3-.3.7-.6,1-.8.3-.3.8-.4,1.2-.6.3-.2.6-.4.8-.5.1,0,.2,0,.4-.1.3-.1.5-.3.8-.4.4-.1.6-.3,1-.4C9.7.3,10.2,0,10.4,0c.6,0,1.2.7,1.6,1.1,1.5,1.5,2.6,3.4,3.6,5.2.2.4.4.9.6,1.3,0,.2.3.8.3,1s-.1.3-.2.4c-.4.6-.8,1.3-1.2,1.9-.4.5-.8.8-1.2,1.1-.3.2-.5.6-.7.9,0,0-.1.1-.2.2-.6.6-1,1.5-1.5,2.2-.9,1.4-2,2.6-3.1,3.9-.6.7-1.1,1.4-1.8,2-.4.4-.9.8-1.3,1.3-.2.3-.3.7-.7.8-1,.2-1.4-.3-2.1-.9-.5-.4-1-.9-1.5-1.4-.1-.1-.2-.3-.3-.4-.2-.3-.4-.4-.6-.8,0-.1-.2-.4,0-.5,0,0,.2-.3.3-.3.2,0,.4,0,.6,0,.4,0,.7,0,1.1,0,.2,0,.4,0,.6,0,.2,0,.4.2.7.1.1,0,.3-.4.4-.5.7-1,1.2-2.2,2-3.2,0-.1.2-.2.3-.3.2-.3.3-.6.5-.8s.4-.5.6-.8c.3-.5.7-1,1-1.5.4-.6.9-1.1,1.3-1.7,0-.1.2-.2.3-.3,0,0,.3-.4.3-.5,0,0,0,0,0-.1h0Z"/>
  </g>
</svg>