<?xml version="1.0" encoding="UTF-8"?>
<svg id="Layer_2" xmlns="http://www.w3.org/2000/svg" version="1.1" viewBox="0 0 16 20.7">
  <!-- Generator: Adobe Illustrator 29.2.1, SVG Export Plug-In . SVG Version: 2.1.0 Build 116)  -->
  <defs>
    <style>
      .st0 {
        fill: #fff;
      }
    </style>
  </defs>
  <g id="SPARE_COMMAS">
    <path class="st0" d="M16,6.6c0-1.7-1.2-3.2-2.8-3.6-.1,0-.2-.1-.2-.2C12.5,1.1,11,0,9.3,0s-3.2,1.2-3.6,2.8c0,.1-.1.2-.2.2-1.6.5-2.7,1.9-2.7,3.6s1.2,3.2,2.8,3.6c.1,0,.2.1.2.2.5,1.6,1.9,2.7,3.6,2.7s2.7-.8,3.3-2h0c.2-.4.8-.2.8.2v1.1c0,.8-.3,1.6-.8,2.1l-2.7,2.7c-.4.4-.8.5-1.3.5H1.4c-.8,0-1.4.6-1.4,1.4h0c0,.8.6,1.4,1.4,1.4h8.6c.2,0,.4,0,.6-.2l4.7-4.7c.5-.5.7-1.1.7-1.7v-7h0c0-.1,0-.2,0-.4h0Z"/>
  </g>
</svg>