<?xml version="1.0" encoding="UTF-8"?>
<svg id="Layer_2" xmlns="http://www.w3.org/2000/svg" version="1.1" viewBox="0 0 13.8 24.4">
  <!-- Generator: Adobe Illustrator 29.2.1, SVG Export Plug-In . SVG Version: 2.1.0 Build 116)  -->
  <defs>
    <style>
      .st0 {
        fill: #fff;
      }
    </style>
  </defs>
  <g id="SPARE_COMMAS">
    <path class="st0" d="M6.2,0s0,0,0,0c2.2,0,4.7,1.3,5.9,3.2,1,1.5,1.4,3.6,1.5,5.5,0,0,0,0,0,0,0,.4,0,.8,0,1.2-.2,5.3-4.6,10.3-8.3,13.7-.3.3-.6.6-1,.8l-1.9-2.2c1.9-1.6,3.7-3.4,5.2-5.3,2-2.6,3.8-6,2.9-9.4-.2-.8-.6-1.5-.9-2.2-.1-.3-.3-.5-.4-.8,0,0,0,0,0,0,.5,1.2.4,2.7,0,4-1.1,4.1-4.6,6.7-8.8,6.8,0,0-.3,0-.3,0,0-1.3,0-2.5,0-3.8C0,10.2,0,8.9,0,7.5s-.1-3,.7-4.5C1.9,1.1,3.9,0,6.1,0h.1Z"/>
  </g>
</svg>