<?xml version="1.0" encoding="UTF-8"?>
<svg id="Layer_2" xmlns="http://www.w3.org/2000/svg" version="1.1" viewBox="0 0 16.5 19.5">
  <!-- Generator: Adobe Illustrator 29.2.1, SVG Export Plug-In . SVG Version: 2.1.0 Build 116)  -->
  <defs>
    <style>
      .st0 {
        fill: #fff;
      }
    </style>
  </defs>
  <g id="SPARE_COMMAS">
    <g id="Layer_1-2">
      <polygon class="st0" points="4.5 19.5 4.5 18 6 18 6 16.5 7.5 16.5 7.5 15 9 15 9 13.5 4.5 13.5 4.5 12 1.5 12 1.5 9 0 9 0 9 0 6 1.5 6 1.5 3 1.5 3 3 3 3 1.5 6 1.5 6 1.5 6 0 10.5 0 10.5 1.5 13.5 1.5 13.5 3 15 3 15 6 16.5 6 16.5 9 15 9 15 12 13.5 12 13.5 15 12 15 12 16.5 10.5 16.5 10.5 18 10.5 18 9 18 9 19.5 4.5 19.5"/>
    </g>
  </g>
</svg>