<?xml version="1.0" encoding="UTF-8"?>
<svg id="Layer_2" xmlns="http://www.w3.org/2000/svg" version="1.1" viewBox="0 0 13.7 20.3">
  <!-- Generator: Adobe Illustrator 29.2.1, SVG Export Plug-In . SVG Version: 2.1.0 Build 116)  -->
  <defs>
    <style>
      .st0 {
        fill: #fff;
      }
    </style>
  </defs>
  <g id="SPARE_COMMAS">
    <g id="Layer_1-2">
      <path class="st0" d="M4.1,0h1.2c1,0,2,0,3,.1h.2c0,0,.1,0,.2.1.3.3.6.6,1,.9.8.7,1.5,1.5,2.2,2.2.6.7,1.2,1.3,1.8,2h0c0,.2,0,.2,0,.3-.4,1.5-.6,2.9-.9,4.4,0,.4-.2,1.1-.5,1.4,0,0-.1.2-.2.3-.1.2-.3.4-.4.6-.1.1-.2.2-.3.4-.5.7-1,1.4-1.6,2.1-.6.6-1.1,1.4-1.6,2-.4.6-.9,1.1-1.3,1.7-.4.6-.9,1.1-1.5,1.6,0,0-.1.1-.2.1h-.1s0,0,0,0c0,0-.2-.1-.3-.2-.3-.2-.6-.4-.9-.6-.8-.6-1.7-1.2-2.5-1.8,0,0-.3-.2-.4-.3,0,0,0,0,0-.1,0-.2.2-.4.3-.5.7-1.4,1.5-2.8,2.3-4.2.1-.2.2-.4.4-.6.3-.5.7-.9.8-1.5,0-.2,0-.3-.2-.4-.6-.5-1.4-.8-2-1.3-.3-.2-.6-.7-.8-1-.4-.7-.7-1.3-1-2-.2-.3-.3-.6-.4-1,0-.2,0-.5,0-.7,0,0,0,0,0,0H0c0-.1,0-.1,0-.2,0,0,.2-.2.2-.2.7-.6,1.3-1.3,2-2,.3-.3.7-.7,1-1,.2-.2.5-.5.7-.6h.2S4.1,0,4.1,0Z"/>
    </g>
  </g>
</svg>