<?xml version="1.0" encoding="UTF-8"?>
<svg id="Layer_2" xmlns="http://www.w3.org/2000/svg" version="1.1" viewBox="0 0 12.7 21.3">
  <!-- Generator: Adobe Illustrator 29.2.1, SVG Export Plug-In . SVG Version: 2.1.0 Build 116)  -->
  <defs>
    <style>
      .st0 {
        fill: #fff;
      }
    </style>
  </defs>
  <g id="SPARE_COMMAS">
    <g id="Layer_1-2">
      <path class="st0" d="M7.9,0c.5,0,1,.2,1.5.4.4.2.9.5,1.3.8.3.2.5.4.7.7.5.6.8,1.3,1.1,2,.4,1.2.4,2.5.2,3.7-.1.6-.2,1.2-.4,1.8-.3,1.1-.5,2.3-1,3.3-.6,1.4-1.8,2.7-2.9,4-.9,1.1-1.6,2.1-3,2.7-.8.4-1.8.6-2.6.9-.5.1-.9.3-1.3.5-.3.1-.5.2-.8.3-.5.1-.8,0-.5-.6.3-.5.8-.9,1.2-1.2.3-.2.6-.5.8-.7.7-.7,1.4-1.4,1.9-2.2.5-.8,1-1.6,1.4-2.4.3-.6.7-1.3.9-2,.1-.4.2-.7.2-1.1,0-.8,0-1.3-.9-1.6-.2,0-.4-.1-.6-.2-.7-.2-1.4-.5-2-.9-.7-.5-1.2-1.4-1.4-2.2-.3-1.2-.4-2.3.3-3.4.4-.7,1-1.3,1.6-1.7.5-.3.9-.5,1.5-.7.4-.1.8-.2,1.3-.2C6.9,0,7.4,0,7.9,0h0Z"/>
    </g>
  </g>
</svg>