<?xml version="1.0" encoding="UTF-8"?>
<svg id="Layer_2" xmlns="http://www.w3.org/2000/svg" version="1.1" viewBox="0 0 14.6 20">
  <!-- Generator: Adobe Illustrator 29.2.1, SVG Export Plug-In . SVG Version: 2.1.0 Build 116)  -->
  <defs>
    <style>
      .st0 {
        fill: #fff;
      }
    </style>
  </defs>
  <g id="SPARE_COMMAS">
    <g id="Layer_1-2">
      <path class="st0" d="M11.5,0c0,0,0,0,.1.1,0,0,0,0,0,0,0,.1,0,.3,0,.4,0,.1,0,.2,0,.3,0,.3,0,.5.2.7,0,0,.1.2.1.3,0,.2.1.4.2.7,0,.2,0,.6,0,.8,0,.4.1.8.2,1.2,0,0,0,.1,0,.2,0,.2,0,.6.1.8,0,.2.2.4.2.7,0,.2,0,.3.1.5.2.9.4,1.9.6,2.8,0,.3.2.5.2.8,0,.1,0,.2,0,.3,0,.4.1.7.3,1,0,.1,0,.3,0,.4,0,.1.1.2.2.4,0,0,0,.1,0,.2,0,.2.1.4.1.6,0,.2,0,.6,0,.8,0,.1,0,.2-.2.3,0,0,0,0-.1,0-.2,0-.3.1-.4.2,0,0-.1,0-.2,0-.4.3-.8.6-1.2.9-.5.3-1,.7-1.5,1-.1,0-.2.1-.3.2-.2.1-.5.2-.8.4-.2.1-.5.2-.7.4-.2.1-.3.3-.4.4s-.2.1-.4.3c-.2.2-.4.2-.6.3,0,0-.2.1-.3.2-.1,0-.3.2-.4.3,0,0-.1,0-.2,0,0,0-.2.1-.2.1-.2,0-.5.1-.6.2-.2,0-.3.2-.5.2,0,0-.2,0-.3,0-.1,0-.3.1-.4.2,0,0-.2,0-.2,0,0,0,0,0,0,0,0,0,0,0-.1,0,0,0,0,0,0,0h0c0,0,0,0,0-.1,0,0,0-.2-.1-.3,0,0,0,0,0,0h0c0-.1,0-.1,0-.1,0,0,0-.2,0-.2,0-.2,0-.3-.2-.5,0,0,0-.1,0-.2,0-.3,0-.6-.2-.9,0,0,0,0,0,0h0c0-.1,0-.1,0-.1,0,0,0-.2,0-.2,0,0,0,0,0,0h0c0,0,0,0,0,0,0,0,0,0,0,0,0,0,0,0,0,0,0-.1.3-.2.4-.3.2-.1.3-.3.5-.5,0,0,.1,0,.2-.1.2-.1.3-.3.5-.4,0,0,.1,0,.2-.1,0,0,0,0,.1,0,0,0,0,0,.2-.1,0,0,0-.1.2-.1.1,0,.2-.2.3-.2.2-.2.4-.4.7-.6.1,0,.3-.2.4-.3,0,0,.1,0,.2-.1,0,0,0-.1.1-.1,0,0,.2-.1.3-.2.1-.1.3-.3.4-.4,0,0,.2-.1.3-.2.1,0,.2-.2.3-.3.2-.2.4-.3.6-.5,0,0,.1-.1.2-.2.1,0,.1,0,.3-.2.1-.1.2-.2.3-.3,0,0,0-.1,0-.2,0-.2,0-.4-.1-.6,0-.1,0-.2,0-.3h0s0,0,0,0c-.1,0-.3,0-.4,0,0,0-.1,0-.2,0-.4.1-.8.2-1.1.3-.3.1-.4.2-.7.2-.2,0-.4,0-.6,0-1.2.2-2.3.5-3.4.6H.5c-.1,0-.3,0-.4-.1C0,11.5,0,11.4,0,11.2S0,10.8,0,10.6c0,0,0-.1,0-.1,0-.1,0-.3,0-.4,0,0,0,0,0,0,0-.2,0-.4.1-.6.2-1.1,0-2.2.1-3.2,0-1.2,0-2.4,0-3.7,0,0,0,0,0-.1,0,0,.1-.2.2-.2,0,0,.1,0,.2,0,.3,0,.6,0,.8-.2,0,0,.2,0,.3,0,.1,0,.3-.1.4-.1.3,0,.6-.1,1-.2.5-.1.9,0,1.4-.2.2,0,.3,0,.5-.1.2,0,.5-.1.7-.2.1,0,.3,0,.4,0s.4-.1.5-.2c.2,0,.5,0,.8,0,.2,0,.5,0,.7,0,.1,0,.4,0,.5-.1.3,0,.5-.1.8-.2.2,0,.4,0,.5,0,0,0,.1,0,.2,0,.1,0,.3,0,.4,0,.1,0,.3-.1.4-.2,0,0,.2,0,.3,0h0Z"/>
    </g>
  </g>
</svg>