<?xml version="1.0" encoding="UTF-8"?>
<svg id="Layer_2" xmlns="http://www.w3.org/2000/svg" version="1.1" viewBox="0 0 17.9 19.8">
  <!-- Generator: Adobe Illustrator 29.2.1, SVG Export Plug-In . SVG Version: 2.1.0 Build 116)  -->
  <defs>
    <style>
      .st0 {
        fill: #fff;
      }
    </style>
  </defs>
  <g id="SPARE_COMMAS">
    <g id="Layer_1-2">
      <path class="st0" d="M10.8,3.4c1.3-.4,2.7-.8,4.1-.9.8,0,2.4-.2,2.9.6.4.8-.5,1.7-1,2.2-.3.3-.7.6-1,.9-.3.3-.6.7-.9,1.1-2.1,2.4-4.3,4.7-6.6,6.9-1.4,1.3-2.8,2.7-4.3,3.8-.7.6-1.7,1.3-2.6,1.6-1.2.4-1.5-.2-1.2-1.3.3-.9.8-1.8,1.3-2.6,1.1-1.9,2.4-3.7,3.8-5.5,0,0,0,0,0,0-.2,0-.5,0-.7.1-1.9,0-3.5-.9-3.8-2.8C.2,5.4,1.5,3.1,3,1.8,4.4.5,6.5-.4,8.4.2c1.5.4,2.4,1.7,2.4,3.2h0Z"/>
    </g>
  </g>
</svg>