<?xml version="1.0" encoding="UTF-8"?>
<svg id="Layer_2" xmlns="http://www.w3.org/2000/svg" version="1.1" viewBox="0 0 12.8 22.7">
  <!-- Generator: Adobe Illustrator 29.2.1, SVG Export Plug-In . SVG Version: 2.1.0 Build 116)  -->
  <defs>
    <style>
      .st0 {
        fill: #fff;
      }
    </style>
  </defs>
  <g id="SPARE_COMMAS">
    <path class="st0" d="M10.6,4.6c0,.2,0,.3.2.4.8.4,1.5,1.1,1.8,1.9.6,1.4,0,3.1-1.1,4-.7.5-1.6.7-2.4.6-.1,0-.2,0-.3.1L1.7,22.5c-.2.3-.6.1-.5-.2l.4-12.9c0-.1,0-.2-.1-.3C.2,8.3-.3,6.7.2,5.2c.5-1.5,2-2.4,3.5-2.2.2,0,.3,0,.3-.2C4.4,1.4,5.4.2,6.8,0s2.7.4,3.4,1.5c.6.9.7,2,.4,3.1h0Z"/>
  </g>
</svg>