<?xml version="1.0" encoding="UTF-8"?>
<svg id="Layer_2" xmlns="http://www.w3.org/2000/svg" version="1.1" viewBox="0 0 10.9 19.2">
  <!-- Generator: Adobe Illustrator 29.2.1, SVG Export Plug-In . SVG Version: 2.1.0 Build 116)  -->
  <defs>
    <style>
      .st0 {
        fill: #fff;
      }
    </style>
  </defs>
  <g id="SPARE_COMMAS">
    <path class="st0" d="M10.9,2.5c-.2,3.4-1,6.8-2.7,9.8-1.6,3-4.2,5.6-7.4,6.8-.7.2-1.2-.6-.6-1.1h.2c0-.1,0-.1,0-.2.3-.2.6-.4.8-.6,2-1.6,3.4-3.8,4.2-6.2.4-1.4.7-2.8.8-4.2,0-1.4,0-2.9-.1-4.3C6,1.3,7,.2,8.3,0c1.5-.2,2.8,1.1,2.6,2.5h0Z"/>
  </g>
</svg>