<?xml version="1.0" encoding="UTF-8"?>
<svg id="Layer_2" xmlns="http://www.w3.org/2000/svg" version="1.1" viewBox="0 0 17.4 19.9">
  <!-- Generator: Adobe Illustrator 29.2.1, SVG Export Plug-In . SVG Version: 2.1.0 Build 116)  -->
  <defs>
    <style>
      .st0 {
        fill: #fff;
      }
    </style>
  </defs>
  <g id="SPARE_COMMAS">
    <g id="Layer_1-2">
      <path class="st0" d="M.1,19.9h-.1v-.2s0,0,0,0c.1,0,.4-.1.5-.2,2.3-.9,4.3-2.4,5.7-4.4.1-.2.5-.6.6-.9.2-.6-.5-.9-.9-1.2-3.3-2.4-4-7-1.6-10.3C6.7-.2,11-.9,14.2,1.3c3.2,2.2,4.2,6.5,2.1,9.9C13,16.3,6.1,19.2.2,19.9h0s0,0,0,0Z"/>
    </g>
  </g>
</svg>