<?xml version="1.0" encoding="UTF-8"?>
<svg id="Layer_2" xmlns="http://www.w3.org/2000/svg" version="1.1" viewBox="0 0 12.4 19.6">
  <!-- Generator: Adobe Illustrator 29.2.1, SVG Export Plug-In . SVG Version: 2.1.0 Build 116)  -->
  <defs>
    <style>
      .st0 {
        fill: #fff;
      }
    </style>
  </defs>
  <g id="SPARE_COMMAS">
    <path class="st0" d="M10.1,0C7.1,0,4,0,.9.3c-.2,0-.4,0-.5.2,0,.1-.1.3-.1.4,0,2.8-.2,5.6-.2,8.5,0,.1,0,.3,0,.4,0,.1.2.2.4.3,2.2.9,4.6.3,6.9.6,0,.2,0,.4-.2.6-1.3,2.5-3.3,4.7-5.8,6.1-.5.3-1.1.6-1.4,1.1.9.5,1.9.8,2.9,1.1.2,0,.3.1.5,0,.1,0,.2-.1.3-.2,3.1-2,5.8-4.7,7.8-7.8.1-.2.2-.4.3-.6,0-.2,0-.4,0-.6,0-.7.1-1.4.1-2.1.2-2.7.4-5.2,0-7.9,0,0,0-.2-.1-.3,0,0-1.8-.2-1.8-.2h0Z"/>
  </g>
</svg>