<?xml version="1.0" encoding="UTF-8"?>
<svg id="Layer_2" xmlns="http://www.w3.org/2000/svg" version="1.1" viewBox="0 0 15.7 15.7">
  <!-- Generator: Adobe Illustrator 29.2.1, SVG Export Plug-In . SVG Version: 2.1.0 Build 116)  -->
  <defs>
    <style>
      .st0 {
        fill: #fff;
      }
    </style>
  </defs>
  <g id="SPARE_COMMAS">
    <path class="st0" d="M8,0h.7c4.3.3,7.3,4.1,7.1,8.3,0,2.5-1.3,4.6-3.4,6.1-4.2,3-10.5.9-12-4.1-.2-.5-.3-1.2-.3-1.8,0-.4.1-.6.6-.6.3,0,.7,0,1,0,.1,0,.4,0,.5.1.2.2.2.4.2.6.6,3.7,4.3,5.9,7.9,4.5,2.4-.9,3.8-3.5,3.5-6,0-.2,0-.5-.1-.7-.1-.3-.2,0-.3.2-.1.3-.2.6-.3.9-1.6,3.7-7,4.4-9.3,1-1.2-1.8-1.4-4.1-.2-6C4.2,1,6,0,8,0Z"/>
  </g>
</svg>