<?xml version="1.0" encoding="UTF-8"?>
<svg id="Layer_2" xmlns="http://www.w3.org/2000/svg" version="1.1" viewBox="0 0 13.5 21.8">
  <!-- Generator: Adobe Illustrator 29.2.1, SVG Export Plug-In . SVG Version: 2.1.0 Build 116)  -->
  <defs>
    <style>
      .st0 {
        fill: #fff;
      }
    </style>
  </defs>
  <g id="SPARE_COMMAS">
    <path class="st0" d="M13.4,10.5L10,.8c-.2-.6-.9-1-1.6-.8L1.2,2.5c-.7.2-1,.9-.8,1.6l3.4,9.6c0,.3.3.6.6.7l1.6.9c.3.1.6.2,1,0l1.5-.5.8,1.3c.2.3.1.6-.1.9l-2.6,2.5c-.2.2-.5.2-.8.1h0s.2-.5.2-.5c.2-.4,0-.9-.3-1.2l-3-1.8c-.4-.3-1-.1-1.2.3L.1,18.9c-.2.4,0,1,.4,1.2l3.1,1.6c.4.2.9,0,1.2-.4l.2-.3,1.1.7c.3.2.6.1.8,0l4.3-4.1c.2-.2.3-.6.1-.9l-1.3-2.3,1.7-.6c.3-.1.6-.3.7-.6l.9-1.7c.2-.3.2-.7,0-1h0Z"/>
  </g>
</svg>