<?xml version="1.0" encoding="UTF-8"?>
<svg id="Layer_2" xmlns="http://www.w3.org/2000/svg" version="1.1" viewBox="0 0 13.2 18">
  <!-- Generator: Adobe Illustrator 29.2.1, SVG Export Plug-In . SVG Version: 2.1.0 Build 116)  -->
  <defs>
    <style>
      .st0 {
        fill: #fff;
      }
    </style>
  </defs>
  <g id="SPARE_COMMAS">
    <path class="st0" d="M6.3,18s0,0,0,0c0-.2,0-.4,0-.6-.1-1.2-.2-2.4-.2-3.6v-1.5c-.3,0-.6.1-.9.2-2.1.2-4-1-4.7-3-1.1-2.9.9-5.2,2.8-7C5,.8,7.4-.6,9.9.3c2.4.8,3.7,3.4,3.1,5.9-.4,1.5-1.5,2.6-2.4,3.7-1.9,2.4-3.3,5.1-4.1,8.1,0,0-.1,0-.2,0h0Z"/>
  </g>
</svg>