<?xml version="1.0" encoding="UTF-8"?>
<svg id="Layer_2" xmlns="http://www.w3.org/2000/svg" version="1.1" viewBox="0 0 20 20.7">
  <!-- Generator: Adobe Illustrator 29.2.1, SVG Export Plug-In . SVG Version: 2.1.0 Build 116)  -->
  <defs>
    <style>
      .st0 {
        fill: #fff;
      }
    </style>
  </defs>
  <g id="SPARE_COMMAS">
    <path class="st0" d="M16.1.2v.6c0,0,0,.2.2.2h3.6c0,0,.2,0,.2.2v1.7c0,0,0,.2-.2.2h-2.9c0,0-.2,0-.2.2v4.6c0,0,0,.2.2.2h2.9c0,0,.2,0,.2.2v3.8h0c0,0-.5,0-.5,0,0,0-.2,0-.2.2v3.6c0,0,0,.2-.2.2h-.4c0,0-.2,0-.2.2v3.6c0,0,0,.2-.2.2h-3.4c0,0-.2,0-.2.2v.8c0,0,0,.2-.2.2-.8,0-4.1,0-4.1,0h-3.7c0,0-.2,0-.2-.2v-.8c0,0,0-.2-.2-.2h-3.5c0,0-.2,0-.2-.2v-2.3c0,0,0-.2-.2-.2H0v-4c0,0,0-.2.2-.2h3.8c0,0,.2,0,.2.2v2.3c0,0,0,.2.2.2h2.6c0,0,.2,0,.2.2v.8c0,0,0,.2.2.2h6.5c0,0,.2,0,.2,0v-.9h0c0,0,.9,0,.9,0,0,0,.2,0,.2-.2v-3.6c0,0,0-.1.1-.2.1,0,.3,0,.4,0s.2,0,.2-.2v-1.6c0,0,0-.2-.2-.2h-1.5c0,0-.2,0-.2.2v1.4c0,0,0,.2-.2.2h-3.9c0,0-.2,0-.2-.2v-1.7c0,0,0-.2-.2-.2h-3c0,0-.2,0-.2-.2v-3.8c0,0,0-.2.2-.2h1.3c0,0,.2,0,.2-.2V1.6h0s3.6,0,3.6,0c0,0,.2,0,.2-.2V.2C11.9,0,12,0,12.1,0h3.8C16,0,16.1,0,16.1.2h0Z"/>
  </g>
</svg>