<?xml version="1.0" encoding="UTF-8"?>
<svg id="Layer_2" xmlns="http://www.w3.org/2000/svg" version="1.1" viewBox="0 0 13.6 22">
  <!-- Generator: Adobe Illustrator 29.2.1, SVG Export Plug-In . SVG Version: 2.1.0 Build 116)  -->
  <defs>
    <style>
      .st0 {
        fill: #fff;
      }
    </style>
  </defs>
  <g id="SPARE_COMMAS">
    <path class="st0" d="M7.1,19.6c-.2.2-.5.3-.7.5-.1.1-.2.2-.4.4-.3.2-.6.4-.9.6-.1,0-.2.2-.3.3-.4.2-.8.2-1.2.3-.3.1-.4.2-.7.2-.4,0-.8.2-1.3.2C.7,22,0,21.4,0,20.5c0-.5.3-.8.7-1.1.6,0,1.2,0,1.8,0,0,0,.2,0,.2,0,.4,0,.5,0,.9-.1.2-.1.4-.2.6-.4.2-.1.6-.3.8-.4.2-.1.3-.4.5-.5.5-.5.9-1,1.5-1.5s1-1.3,1.4-2c.3-.4.8-.9.6-1.4,0-.2-.4-.6-.6-.8-.2-.2-.9-.3-1.1-.2-.1,0-.4.3-.5.3-.6,0-1.1,0-1.6-.1-.3-.1-.5-.3-.7-.4-.8-.6-1.3-1.2-1.9-2-.2-.3-.2-.4-.3-.8-.2-1.4-.5-2.6-.2-4.1.5-2,1.4-3.6,3.3-4.5C6.4,0,6.9,0,8.1,0c2.3.1,4.2,1.9,4.9,4,.2.5.5,1.5.5,2,0,.2,0,.5,0,.7s.1.5.1.7c0,1.2-.4,3.1-.8,4.3-.1.4-.4.9-.5,1.3-.1.3-.4.7-.5,1-.4,1.2-.3,1.5-1.3,2.5-.3.3-.5.5-.8.8-.4.4-1.1,1.1-1.5,1.4-.2.2-.5.3-.8.5-.1,0-.2.2-.3.3h0Z"/>
  </g>
</svg>