<?xml version="1.0" encoding="UTF-8"?>
<svg id="Layer_2" xmlns="http://www.w3.org/2000/svg" version="1.1" viewBox="0 0 20.3 20.5">
  <!-- Generator: Adobe Illustrator 29.2.1, SVG Export Plug-In . SVG Version: 2.1.0 Build 116)  -->
  <defs>
    <style>
      .st0 {
        fill: #fff;
      }
    </style>
  </defs>
  <g id="SPARE_COMMAS">
    <g id="Layer_1-2">
      <path class="st0" d="M19.5,13.3l-.6,1.5c-3.7,9.3-14.4,5.8-18.5-1.2C.4,13.4,0,12.8,0,12.6l.3-.2c1.9,1.1,3.6,2.4,5.6,3.4,2.2,1.2,4.7,2.7,7.1,1.3,2-1.2,2.7-3.6,2.5-5.8-.1-1.4-.9-3.6-2.6-3.5-.2,0-.1.3-.3.3-1.7.3-4-2.1-4.1-3.8-.3-5.3,8.9-5.7,11-1,1.2,2.7.9,7.4,0,10.1h0Z"/>
    </g>
  </g>
</svg>