<?xml version="1.0" encoding="UTF-8"?>
<svg id="Layer_2" xmlns="http://www.w3.org/2000/svg" version="1.1" viewBox="0 0 13 19.5">
  <!-- Generator: Adobe Illustrator 29.2.1, SVG Export Plug-In . SVG Version: 2.1.0 Build 116)  -->
  <defs>
    <style>
      .st0 {
        fill: #fff;
      }
    </style>
  </defs>
  <g id="SPARE_COMMAS">
    <path class="st0" d="M13,9v4.9h0l-5.5,5.6s0,0-.1,0H.2C0,19.5,0,19.5,0,19.4v-3.2C0,16.1,0,16,.2,16h4.4s0,0,.1,0l1.9-1.6s0,0,0-.1v-3.3c0,0,0-.2-.2-.2h-2.2c0,0-.2,0-.2.2v1.8c0,0,0,.2-.2.2H.2c0,0-.2,0-.2-.2v-7.8c0,0,0,0,0-.1L6.4,0c0,0,.1,0,.2,0l6.3,4.7s0,0,0,.1v4.1h0Z"/>
  </g>
</svg>