<?xml version="1.0" encoding="UTF-8"?>
<svg id="Layer_2" xmlns="http://www.w3.org/2000/svg" version="1.1" viewBox="0 0 17.5 21.3">
  <!-- Generator: Adobe Illustrator 29.2.1, SVG Export Plug-In . SVG Version: 2.1.0 Build 116)  -->
  <defs>
    <style>
      .st0 {
        fill: #fff;
      }
    </style>
  </defs>
  <g id="SPARE_COMMAS">
    <path class="st0" d="M15.5,16.8c-3.4,5.3-12,5.2-15.3,3.1-.1-.1-.2-.2-.2-.4,0-.2.3-.2.5-.2.8,0,2,0,3.3-.2,1.8-.3,4-1,5.3-2.4.2-.3-.2-.3-.4-.3-3.8,0-7.2-2.3-8.3-5.9-.9-2.8,0-6.2,2.2-8.2C4.3.8,6.6,0,9,0c1.5,0,2.9.4,4.1,1.2,1.3.9,2.9,2.8,3.8,5.3,1.1,3.1.9,6.7-1.4,10.3h0s0,0,0,0Z"/>
  </g>
</svg>