<?xml version="1.0" encoding="UTF-8"?>
<svg id="Layer_2" xmlns="http://www.w3.org/2000/svg" version="1.1" viewBox="0 0 13 20">
  <!-- Generator: Adobe Illustrator 29.2.1, SVG Export Plug-In . SVG Version: 2.1.0 Build 116)  -->
  <defs>
    <style>
      .st0 {
        fill: #fff;
      }
    </style>
  </defs>
  <g id="SPARE_COMMAS">
    <path class="st0" d="M12.8,0s.1.1.1.2v14.8h0v.2c-.1,0-.1,0-.1,0,0,0,0,0,0,0-1.8,1.5-3.6,3.1-5.4,4.7,0,0,0,0,0,0l-2.4-3.6h0s0,0,0,0l2.3-3.7c0-1.9,0-3.9,0-5.8L0,7V0C0,0,0,0,0,0,1.4,0,2.7,0,4,0,6.9,0,9.8,0,12.7,0c0,0,0,0,.1,0Z"/>
  </g>
</svg>