<?xml version="1.0" encoding="UTF-8"?>
<svg id="Layer_2" xmlns="http://www.w3.org/2000/svg" version="1.1" viewBox="0 0 20.9 21.3">
  <!-- Generator: Adobe Illustrator 29.2.1, SVG Export Plug-In . SVG Version: 2.1.0 Build 116)  -->
  <defs>
    <style>
      .st0 {
        fill: #fff;
      }
    </style>
  </defs>
  <g id="SPARE_COMMAS">
    <path class="st0" d="M20.8,11.8c0,.3-.1.6-.2.9-.3,1.2-1,2.7-2,4.1-2.8,3.8-8.5,5.6-12.7,3.5C1.9,18.4.2,14.8,0,9.5c1.2-.2,3.3-.4,4.5-.6.2,1.1.7,3.7,2.2,5.1,1.3,1.2,3.4,2.2,6.1,1.2,0,0-.1,0-.1,0-4.5.6-7.8-3.4-7.8-7.6S8.4,0,12.7,0s6.3,2.1,7.4,5.1h0c.1.3,1.2,3.2.7,6.7h0Z"/>
  </g>
</svg>